<?xml version="1.0" encoding="UTF-8"?>
<!-- Created with Inkscape (http://www.inkscape.org/) -->
<svg width="24" height="24" version="1.1" viewBox="0 0 24 24" xmlns="http://www.w3.org/2000/svg">
 <g>
  <path d="M 0.40242 293.69a0.1323 0.13929 0 0 0-0.082031 0.24881l2.9082 2.5046a0.13254 0.13955 0 1 0 0.16797-0.21591l-2.9082-2.5046a0.1323 0.13929 0 0 0-0.085938-0.0329zm2.9062-2.5066a0.1323 0.13929 0 0 0-0.080078 0.0328l-2.9082 2.5046a0.13254 0.13955 0 1 0 0.16797 0.21591l2.9062-2.5045a0.1323 0.13929 0 0 0-0.085937-0.2488zm-2.918 2.5066a0.13299 0.14002 0 0 0 0.013672 0.27966h5.5527a0.13282 0.13983 0 1 0 0-0.27966h-5.5527a0.1323 0.13929 0 0 0-0.013672 0z"/>
 </g>
</svg>
